<svg xmlns="http://www.w3.org/2000/svg" width="1em" height="1em" fill="currentColor" aria-hidden="true" class="x1lliihq x2lah0s x1k90msu x2h7rmj x1qfuztq x198g3q0 xxk0z11 xvy4d1p" viewBox="0 0 24 24"><path fill-rule="evenodd" d="M12 14a4 4 0 1 0 0-8 4 4 0 0 0 0 8m0-2a2 2 0 1 0 0-4 2 2 0 0 0 0 4" clip-rule="evenodd"/><path fill-rule="evenodd" d="M9.172 20.43a12 12 0 0 1-3.385-2.801A12 12 0 0 1 3 9.939V5.835c0-.515.28-.99.73-1.24a17.03 17.03 0 0 1 16.54 0c.45.25.73.725.73 1.24V9.94a12 12 0 0 1-6.172 10.49l-1.857 1.032a2 2 0 0 1-1.942 0zM19 6.18a15.03 15.03 0 0 0-14 0v3.76c0 2.34.817 4.562 2.248 6.318C8.554 15.419 10.277 15 12 15s3.446.419 4.752 1.257A10 10 0 0 0 19 9.939V6.181zM12 17c-1.244 0-2.404.267-3.285.718q.665.538 1.429.963L12 19.712l1.856-1.031a10 10 0 0 0 1.429-.963C14.405 17.267 13.245 17 12 17" clip-rule="evenodd"/></svg>