<svg xmlns="http://www.w3.org/2000/svg" width="1em" height="1em" fill="currentColor" aria-hidden="true" class="x1lliihq x2lah0s x1k90msu x2h7rmj x1qfuztq x198g3q0 xxk0z11 xvy4d1p" viewBox="0 0 24 24"><path fill-rule="evenodd" d="M16 12a4 4 0 1 1-8 0 4 4 0 0 1 8 0m-2 0a2 2 0 1 1-4 0 2 2 0 0 1 4 0" clip-rule="evenodd"/><path fill-rule="evenodd" d="m22.191 9.207-2.224 2.06a8 8 0 0 1 0 1.466l2.224 2.06a1 1 0 0 1 .187 1.233l-1.702 2.948a1 1 0 0 1-1.162.455l-2.895-.896a8 8 0 0 1-1.27.735l-.672 2.954a1 1 0 0 1-.975.778H10.3a1 1 0 0 1-.975-.778l-.672-2.954a8 8 0 0 1-1.27-.735l-2.895.896a1 1 0 0 1-1.162-.455l-1.702-2.948a1 1 0 0 1 .187-1.233l2.224-2.06a8 8 0 0 1 0-1.466L1.81 9.207a1 1 0 0 1-.187-1.233l1.702-2.948a1 1 0 0 1 1.162-.455l2.895.896a8 8 0 0 1 1.27-.735l.672-2.954A1 1 0 0 1 10.299 1h3.403a1 1 0 0 1 .975.778l.672 2.954a8 8 0 0 1 1.27.735l2.895-.896a1 1 0 0 1 1.162.455l1.702 2.948a1 1 0 0 1-.187 1.233m-8.574-3.071.894.412q.503.233.952.551l.805.57 3.075-.951.903 1.564-2.36 2.186.09.98a6 6 0 0 1 0 1.104l-.09.98 2.36 2.185-.903 1.565-3.075-.951-.805.57a6 6 0 0 1-.952.55l-.894.413L12.904 21h-1.807l-.713-3.136-.894-.412a6 6 0 0 1-.952-.551l-.805-.57-3.075.951-.904-1.565 2.36-2.185-.089-.98a6 6 0 0 1 0-1.104l.09-.98-2.36-2.186.903-1.564 3.075.951.805-.57q.449-.319.952-.55l.894-.413L11.097 3h1.807z" clip-rule="evenodd"/></svg>