<svg xmlns="http://www.w3.org/2000/svg" width="1em" height="1em" fill="currentColor" aria-hidden="true" class="x1lliihq x2lah0s x1k90msu x2h7rmj x1qfuztq xcza8v6 xxk0z11 xvy4d1p" viewBox="0 0 24 24"><path fill-rule="evenodd" d="M12 7.207a4.793 4.793 0 1 0 0 9.586 4.793 4.793 0 0 0 0-9.586m0 7.904a3.111 3.111 0 1 1 0-6.222 3.111 3.111 0 0 1 0 6.222" clip-rule="evenodd"/><path d="M16.982 8.138a1.12 1.12 0 1 0 0-2.24 1.12 1.12 0 0 0 0 2.24"/><path fill-rule="evenodd" d="M12 2.667c-2.535 0-2.853.01-3.848.056-.994.045-1.672.203-2.266.433a4.6 4.6 0 0 0-1.653 1.077 4.6 4.6 0 0 0-1.076 1.653c-.231.594-.389 1.272-.434 2.266-.046.995-.056 1.313-.056 3.848s.01 2.852.056 3.848c.045.993.203 1.672.433 2.266a4.6 4.6 0 0 0 1.077 1.653c.519.518 1.04.838 1.653 1.076.594.23 1.272.389 2.266.434.995.045 1.313.056 3.848.056s2.852-.01 3.848-.056c.993-.045 1.672-.203 2.266-.434a4.6 4.6 0 0 0 1.653-1.076 4.6 4.6 0 0 0 1.076-1.653c.23-.594.389-1.273.434-2.266.045-.996.056-1.313.056-3.848s-.01-2.853-.056-3.848c-.045-.994-.203-1.672-.434-2.266a4.6 4.6 0 0 0-1.076-1.653 4.6 4.6 0 0 0-1.653-1.076c-.594-.231-1.273-.389-2.266-.434-.996-.046-1.313-.056-3.848-.056m0 1.681c2.492 0 2.787.01 3.771.055.91.041 1.404.193 1.733.321.436.17.747.372 1.074.698.326.327.529.638.698 1.073.128.33.28.824.321 1.733.045.985.054 1.28.054 3.772s-.009 2.787-.054 3.771c-.041.91-.193 1.404-.321 1.733-.17.436-.372.747-.698 1.074a2.9 2.9 0 0 1-1.074.698c-.329.128-.823.28-1.733.321-.984.045-1.279.054-3.771.054s-2.788-.009-3.771-.054c-.91-.041-1.405-.193-1.734-.321a2.9 2.9 0 0 1-1.073-.698 2.9 2.9 0 0 1-.698-1.074c-.128-.329-.28-.823-.321-1.733-.045-.984-.055-1.279-.055-3.771s.01-2.787.055-3.771c.041-.91.193-1.405.321-1.734a2.9 2.9 0 0 1 .698-1.073 2.9 2.9 0 0 1 1.073-.698c.33-.128.824-.28 1.733-.321.985-.045 1.28-.055 3.772-.055" clip-rule="evenodd"/></svg>