<svg xmlns="http://www.w3.org/2000/svg" width="1em" height="1em" fill="currentColor" aria-hidden="true" class="x1lliihq x2lah0s x1k90msu x2h7rmj x1qfuztq x198g3q0 xxk0z11 xvy4d1p" viewBox="0 0 24 24"><path fill-rule="evenodd" d="M6.624 4.176 5.368 8.57l-.314-.055a11 11 0 0 1-1.331-.313 4 4 0 0 1-.29-.104 1 1 0 0 0-.88 1.795l.025.013-.024-.012h.001l.003.002.006.003.014.007a2 2 0 0 0 .15.064q.138.057.393.139c.341.108.851.242 1.575.374C6.143 10.747 8.454 11 12 11s5.857-.253 7.304-.516a13 13 0 0 0 1.575-.374 5 5 0 0 0 .543-.203l.014-.007.006-.003.003-.001.001-.001-.062.029.063-.03a1 1 0 0 0-.88-1.795 4 4 0 0 1-.29.104c-.252.08-.68.195-1.33.313l-.315.055-1.256-4.395A3 3 0 0 0 14.491 2H9.51a3 3 0 0 0-2.885 2.176zM9.509 4a1 1 0 0 0-.962.725l-1.17 4.093C8.578 8.925 10.097 9 12 9a52 52 0 0 0 4.622-.182l-1.17-4.093a1 1 0 0 0-.96-.725H9.508zm1.365 14A4.002 4.002 0 0 1 3 17a4 4 0 0 1 7.874-1h2.252A4.002 4.002 0 0 1 21 17a4 4 0 0 1-7.874 1zM9 17.03a2 2 0 1 1 0-.06zM17 19a2 2 0 1 0 0-4 2 2 0 0 0 0 4" clip-rule="evenodd"/></svg>